<?xml version="1.0" encoding="UTF-8" standalone="no" ?>
<!DOCTYPE svg PUBLIC "-//W3C//DTD SVG 1.1//EN" "http://www.w3.org/Graphics/SVG/1.1/DTD/svg11.dtd">
<svg xmlns="http://www.w3.org/2000/svg" xmlns:xlink="http://www.w3.org/1999/xlink" version="1.1" width="64" height="64" viewBox="0 0 64 64" xml:space="preserve">
<desc>Created with Fabric.js 5.3.0</desc>
<defs>
</defs>
<g transform="matrix(0.4513754299 0 0 0.4513754299 32 32)" id="hq5mPSoW7g5mDEMfnq9dV"  >
<path style="stroke: rgb(180,69,10); stroke-width: 0; stroke-dasharray: none; stroke-linecap: butt; stroke-dashoffset: 0; stroke-linejoin: miter; stroke-miterlimit: 4; fill: rgb(3,4,234); fill-rule: nonzero; opacity: 1;"  transform=" translate(0, 0)" d="M 0 -5.24109 C 2.89308 -5.24109 5.24109 -2.89308 5.24109 0 C 5.24109 2.89308 2.89308 5.24109 0 5.24109 C -2.89308 5.24109 -5.24109 2.89308 -5.24109 0 C -5.24109 -2.89308 -2.89308 -5.24109 0 -5.24109 z" stroke-linecap="round" />
</g>
<g transform="matrix(1 0 0 1 36.0757359621 18.6005926818)" id="5KX5f5B1jo2f3MbJKBCyl"  >
<path style="stroke: rgb(188,49,149); stroke-width: 0; stroke-dasharray: none; stroke-linecap: butt; stroke-dashoffset: 0; stroke-linejoin: miter; stroke-miterlimit: 4; fill: rgb(247,47,58); fill-rule: nonzero; opacity: 1;"  transform=" translate(0, 0)" d="M 4.07574 -10.55982 L -4.07573 10.55981 L -4.07573 -6.259299999999998 z" stroke-linecap="round" />
</g>
<g transform="matrix(-1 0 0 1 27.924265 18.6005908072)" id="aDI1Bo5b5aoEujJxALakm"  >
<path style="stroke: rgb(188,49,149); stroke-width: 0; stroke-dasharray: none; stroke-linecap: butt; stroke-dashoffset: 0; stroke-linejoin: miter; stroke-miterlimit: 4; fill: rgb(247,47,58); fill-rule: nonzero; opacity: 1;"  transform=" translate(-0.000005, 0.000005)" d="M 4.07574 -10.55982 L -4.07573 10.55981 L -4.07573 -6.259299999999998 z" stroke-linecap="round" />
</g>
</svg>