<?xml version="1.0" encoding="UTF-8" standalone="no" ?>
<!DOCTYPE svg PUBLIC "-//W3C//DTD SVG 1.1//EN" "http://www.w3.org/Graphics/SVG/1.1/DTD/svg11.dtd">
<svg xmlns="http://www.w3.org/2000/svg" xmlns:xlink="http://www.w3.org/1999/xlink" version="1.1" width="512" height="512" viewBox="0 0 512 512" xml:space="preserve">
<desc>Created with Fabric.js 5.3.0</desc>
<defs>
</defs>
<g transform="matrix(2.82 0 0 2.82 275.4069119287 144.4102564103)" id="TNppeLOEoJ_uU-LIr1Yn6"  >
<path style="stroke: rgb(104,174,153); stroke-width: 0; stroke-dasharray: none; stroke-linecap: butt; stroke-dashoffset: 0; stroke-linejoin: miter; stroke-miterlimit: 4; fill: rgb(181,34,42); fill-rule: nonzero; opacity: 1;" vector-effect="non-scaling-stroke"  transform=" translate(0, 0)" d="M 0 -28.53958 C 15.75385 -28.53958 28.53958 -15.753850000000002 28.53958 0 C 28.53958 15.75385 15.753850000000002 28.53958 0 28.53958 C -15.75385 28.53958 -28.53958 15.753850000000002 -28.53958 0 C -28.53958 -15.75385 -15.753850000000002 -28.53958 0 -28.53958 z" stroke-linecap="round" />
</g>
<g transform="matrix(2.82 0 0 2.82 149.5585284281 366.1739130435)" id="u0GDohYQCKtDEJ8d71Xx_"  >
<path style="stroke: rgb(104,174,153); stroke-width: 0; stroke-dasharray: none; stroke-linecap: butt; stroke-dashoffset: 0; stroke-linejoin: miter; stroke-miterlimit: 4; fill: rgb(37,160,37); fill-rule: nonzero; opacity: 1;" vector-effect="non-scaling-stroke"  transform=" translate(0, 0)" d="M 0 -28.53958 C 15.75385 -28.53958 28.53958 -15.753850000000002 28.53958 0 C 28.53958 15.75385 15.753850000000002 28.53958 0 28.53958 C -15.75385 28.53958 -28.53958 15.753850000000002 -28.53958 0 C -28.53958 -15.75385 -15.753850000000002 -28.53958 0 -28.53958 z" stroke-linecap="round" />
</g>
<g transform="matrix(2.82 0 0 2.82 393.0122630993 366.1739130435)" id="IGnEBxR6Bv1Yx44NS9K_Q"  >
<path style="stroke: rgb(104,174,153); stroke-width: 0; stroke-dasharray: none; stroke-linecap: butt; stroke-dashoffset: 0; stroke-linejoin: miter; stroke-miterlimit: 4; fill: rgb(26,101,151); fill-rule: nonzero; opacity: 1;" vector-effect="non-scaling-stroke"  transform=" translate(0, 0)" d="M 0 -28.53958 C 15.75385 -28.53958 28.53958 -15.753850000000002 28.53958 0 C 28.53958 15.75385 15.753850000000002 28.53958 0 28.53958 C -15.75385 28.53958 -28.53958 15.753850000000002 -28.53958 0 C -28.53958 -15.75385 -15.753850000000002 -28.53958 0 -28.53958 z" stroke-linecap="round" />
</g>
</svg>