<?xml version="1.0" encoding="UTF-8" standalone="no" ?>
<!DOCTYPE svg PUBLIC "-//W3C//DTD SVG 1.1//EN" "http://www.w3.org/Graphics/SVG/1.1/DTD/svg11.dtd">
<svg xmlns="http://www.w3.org/2000/svg" xmlns:xlink="http://www.w3.org/1999/xlink" version="1.1" width="512" height="512" viewBox="0 0 512 512" xml:space="preserve">
<desc>Created with Fabric.js 5.3.0</desc>
<defs>
</defs>
<g transform="matrix(0.2104817859 0 0 1.4177215188 99.657143126 252.8219143028)" id="6f-cR-vMc8YGxaVRix90o"  >
<path style="stroke: rgb(22,17,119); stroke-width: 0; stroke-dasharray: none; stroke-linecap: butt; stroke-dashoffset: 0; stroke-linejoin: miter; stroke-miterlimit: 4; fill: rgb(0,0,0); fill-rule: nonzero; opacity: 1;" vector-effect="non-scaling-stroke"  transform=" translate(0, 0)" d="M -157.82386 -157.82386 L 157.82385000000002 -157.82386 L 157.82385000000002 157.82385000000002 L -157.82386 157.82385000000002 z" stroke-linecap="round" />
</g>
<g transform="matrix(1.059782608 0 0 0.4701086951 293.67224074 93.1878324574)" id="1deE2uJcvttenbfeCre7B"  >
<path style="stroke: rgb(35,2,211); stroke-width: 0; stroke-dasharray: none; stroke-linecap: butt; stroke-dashoffset: 0; stroke-linejoin: miter; stroke-miterlimit: 4; fill: rgb(247,47,58); fill-rule: nonzero; opacity: 1;" vector-effect="non-scaling-stroke"  transform=" translate(0, 0)" d="M -105.02564 -105.02564 L 105.02564 -105.02564 L 105.02564 105.02564 L -105.02564 105.02564 z" stroke-linecap="round" />
</g>
<g transform="matrix(1.4034795439 0 0 0.572063943 329.7692317949 256)" id="3vAfThm2g85ZbFJdcqueS"  >
<path style="stroke: rgb(35,2,211); stroke-width: 0; stroke-dasharray: none; stroke-linecap: butt; stroke-dashoffset: 0; stroke-linejoin: miter; stroke-miterlimit: 4; fill: rgb(13,186,13); fill-rule: nonzero; opacity: 1;" vector-effect="non-scaling-stroke"  transform=" translate(0, 0)" d="M -105.02564 -105.02564 L 105.02564 -105.02564 L 105.02564 105.02564 L -105.02564 105.02564 z" stroke-linecap="round" />
</g>
<g transform="matrix(0.9184782604 0 0 0.4914402168 278.831661033 413.0614429049)" id="vrSubmivr4upp3KUz1fb2"  >
<path style="stroke: rgb(35,2,211); stroke-width: 0; stroke-dasharray: none; stroke-linecap: butt; stroke-dashoffset: 0; stroke-linejoin: miter; stroke-miterlimit: 4; fill: rgb(0,0,255); fill-rule: nonzero; opacity: 1;" vector-effect="non-scaling-stroke"  transform=" translate(0, 0)" d="M -105.02564 -105.02564 L 105.02564 -105.02564 L 105.02564 105.02564 L -1.864360000000005 105.02564 L -105.02564000000001 105.02564 z" stroke-linecap="round" />
</g>
</svg>