<?xml version="1.0" encoding="UTF-8" standalone="no" ?>
<!DOCTYPE svg PUBLIC "-//W3C//DTD SVG 1.1//EN" "http://www.w3.org/Graphics/SVG/1.1/DTD/svg11.dtd">
<svg xmlns="http://www.w3.org/2000/svg" xmlns:xlink="http://www.w3.org/1999/xlink" version="1.1" width="512" height="512" viewBox="0 0 512 512" xml:space="preserve">
<desc>Created with Fabric.js 5.3.0</desc>
<defs>
</defs>
<g transform="matrix(1 0 0 1 60.7892976588 256)" id="h3ElArfxtA1mOvo3u4xHe"  >
<g style="" vector-effect="non-scaling-stroke"   >
		<g transform="matrix(1 0 0 1 0 0)" id="WpAU6n5Dulfa6iFNUwcJJ"  >
<path style="stroke: rgb(41,90,75); stroke-width: 0; stroke-dasharray: none; stroke-linecap: butt; stroke-dashoffset: 0; stroke-linejoin: miter; stroke-miterlimit: 4; fill: rgb(0,0,0); fill-rule: nonzero; opacity: 1;" vector-effect="non-scaling-stroke"  transform=" translate(-21.6900815437, -21.6900815437)" d="M 21.69008 0 C 33.663 0 43.38016 9.71715 43.38016 21.69008 C 43.38016 33.663 33.66301 43.38016 21.69008 43.38016 C 9.717159999999998 43.38016 0 33.66301 0 21.69008 C 0 9.717159999999998 9.71715 0 21.69008 0 z" stroke-linecap="round" />
</g>
		<g transform="matrix(0.7169810899 0 0 0.7169810899 0 0)" id="uz8WkbE9xpmVqT46KIZk3"  >
<path style="stroke: rgb(191,12,204); stroke-width: 0; stroke-dasharray: none; stroke-linecap: butt; stroke-dashoffset: 0; stroke-linejoin: miter; stroke-miterlimit: 4; fill: rgb(255,255,255); fill-rule: nonzero; opacity: 1;" vector-effect="non-scaling-stroke"  transform=" translate(0, 0)" d="M 0 -15.12598 C 8.34954 -15.12598 15.12598 -8.349540000000001 15.12598 0 C 15.12598 8.34954 8.349540000000001 15.12598 0 15.12598 C -8.34954 15.12598 -15.12598 8.349540000000001 -15.12598 0 C -15.12598 -8.34954 -8.349540000000001 -15.12598 0 -15.12598 z" stroke-linecap="round" />
</g>
</g>
</g>
<g transform="matrix(1 0 0 1 277.6900815438 35.4002229654)" id="w4vTa1FF1w-ug5CxLGEro"  >
<g style="" vector-effect="non-scaling-stroke"   >
		<g transform="matrix(1 0 0 1 0 0)" id="HmYWB2B6H08DfweJKv0X8"  >
<path style="stroke: rgb(41,90,75); stroke-width: 0; stroke-dasharray: none; stroke-linecap: butt; stroke-dashoffset: 0; stroke-linejoin: miter; stroke-miterlimit: 4; fill: rgb(0,0,0); fill-rule: nonzero; opacity: 1;" vector-effect="non-scaling-stroke"  transform=" translate(-21.69008, -21.69008)" d="M 21.69008 0 C 33.663 0 43.38016 9.71715 43.38016 21.69008 C 43.38016 33.663 33.66301 43.38016 21.69008 43.38016 C 9.717159999999998 43.38016 0 33.66301 0 21.69008 C 0 9.717159999999998 9.71715 0 21.69008 0 z" stroke-linecap="round" />
</g>
		<g transform="matrix(0.7169810899 0 0 0.7169810899 0 0)" id="f-Cbsg33H6q0jjnmf20wd"  >
<path style="stroke: rgb(191,12,204); stroke-width: 0; stroke-dasharray: none; stroke-linecap: butt; stroke-dashoffset: 0; stroke-linejoin: miter; stroke-miterlimit: 4; fill: rgb(255,255,255); fill-rule: nonzero; opacity: 1;" vector-effect="non-scaling-stroke"  transform=" translate(0, 0)" d="M 0 -15.12598 C 8.34954 -15.12598 15.12598 -8.349540000000001 15.12598 0 C 15.12598 8.34954 8.349540000000001 15.12598 0 15.12598 C -8.34954 15.12598 -15.12598 8.349540000000001 -15.12598 0 C -15.12598 -8.34954 -8.349540000000001 -15.12598 0 -15.12598 z" stroke-linecap="round" />
</g>
</g>
</g>
<g transform="matrix(1 0 0 1 472.3522853957 256)" id="AN6HTPtoLHiuitLwYu--p"  >
<g style="" vector-effect="non-scaling-stroke"   >
		<g transform="matrix(1 0 0 1 0 0)" id="j7q7VDs8GckA7vvUXTzPt"  >
<path style="stroke: rgb(41,90,75); stroke-width: 0; stroke-dasharray: none; stroke-linecap: butt; stroke-dashoffset: 0; stroke-linejoin: miter; stroke-miterlimit: 4; fill: rgb(0,0,0); fill-rule: nonzero; opacity: 1;" vector-effect="non-scaling-stroke"  transform=" translate(-21.69008, -21.69008)" d="M 21.69008 0 C 33.663 0 43.38016 9.71715 43.38016 21.69008 C 43.38016 33.663 33.66301 43.38016 21.69008 43.38016 C 9.717159999999998 43.38016 0 33.66301 0 21.69008 C 0 9.717159999999998 9.71715 0 21.69008 0 z" stroke-linecap="round" />
</g>
		<g transform="matrix(0.7169810899 0 0 0.7169810899 0 0)" id="uCtspGqz7I_Ho_RxVH0ia"  >
<path style="stroke: rgb(191,12,204); stroke-width: 0; stroke-dasharray: none; stroke-linecap: butt; stroke-dashoffset: 0; stroke-linejoin: miter; stroke-miterlimit: 4; fill: rgb(255,255,255); fill-rule: nonzero; opacity: 1;" vector-effect="non-scaling-stroke"  transform=" translate(0, 0)" d="M 0 -15.12598 C 8.34954 -15.12598 15.12598 -8.349540000000001 15.12598 0 C 15.12598 8.34954 8.349540000000001 15.12598 0 15.12598 C -8.34954 15.12598 -15.12598 8.349540000000001 -15.12598 0 C -15.12598 -8.34954 -8.349540000000001 -15.12598 0 -15.12598 z" stroke-linecap="round" />
</g>
</g>
</g>
<g transform="matrix(1 0 0 1 277.6900815438 462.3745819398)" id="p2StRaq2DCoGUwnBofvC1"  >
<g style="" vector-effect="non-scaling-stroke"   >
		<g transform="matrix(1 0 0 1 0 0)" id="5DlvFBmAgK06rthl3iSrv"  >
<path style="stroke: rgb(41,90,75); stroke-width: 0; stroke-dasharray: none; stroke-linecap: butt; stroke-dashoffset: 0; stroke-linejoin: miter; stroke-miterlimit: 4; fill: rgb(0,0,0); fill-rule: nonzero; opacity: 1;" vector-effect="non-scaling-stroke"  transform=" translate(-21.69008, -21.69008)" d="M 21.69008 0 C 33.663 0 43.38016 9.71715 43.38016 21.69008 C 43.38016 33.663 33.66301 43.38016 21.69008 43.38016 C 9.717159999999998 43.38016 0 33.66301 0 21.69008 C 0 9.717159999999998 9.71715 0 21.69008 0 z" stroke-linecap="round" />
</g>
		<g transform="matrix(0.7169810899 0 0 0.7169810899 0 0)" id="UBxfG8l8-ywp3KzRRm6AB"  >
<path style="stroke: rgb(191,12,204); stroke-width: 0; stroke-dasharray: none; stroke-linecap: butt; stroke-dashoffset: 0; stroke-linejoin: miter; stroke-miterlimit: 4; fill: rgb(255,255,255); fill-rule: nonzero; opacity: 1;" vector-effect="non-scaling-stroke"  transform=" translate(0, 0)" d="M 0 -15.12598 C 8.34954 -15.12598 15.12598 -8.349540000000001 15.12598 0 C 15.12598 8.34954 8.349540000000001 15.12598 0 15.12598 C -8.34954 15.12598 -15.12598 8.349540000000001 -15.12598 0 C -15.12598 -8.34954 -8.349540000000001 -15.12598 0 -15.12598 z" stroke-linecap="round" />
</g>
</g>
</g>
<g transform="matrix(1 0 0 1 106.9466440495 68.1074056378)" id="Vxtx8ut0oELi5iQpm0R-k"  >
<g style="" vector-effect="non-scaling-stroke"   >
		<g transform="matrix(1 0 0 1 0 0)" id="1Fa6KERmfIsMA8UB9o16j"  >
<path style="stroke: rgb(41,90,75); stroke-width: 0; stroke-dasharray: none; stroke-linecap: butt; stroke-dashoffset: 0; stroke-linejoin: miter; stroke-miterlimit: 4; fill: rgb(0,0,0); fill-rule: nonzero; opacity: 1;" vector-effect="non-scaling-stroke"  transform=" translate(-21.69008, -21.69008)" d="M 21.69008 0 C 33.663 0 43.38016 9.71715 43.38016 21.69008 C 43.38016 33.663 33.66301 43.38016 21.69008 43.38016 C 9.717159999999998 43.38016 0 33.66301 0 21.69008 C 0 9.717159999999998 9.71715 0 21.69008 0 z" stroke-linecap="round" />
</g>
		<g transform="matrix(0.7169810899 0 0 0.7169810899 0 0)" id="vLj-8dn4ZxZnZIMnpGr9U"  >
<path style="stroke: rgb(191,12,204); stroke-width: 0; stroke-dasharray: none; stroke-linecap: butt; stroke-dashoffset: 0; stroke-linejoin: miter; stroke-miterlimit: 4; fill: rgb(255,255,255); fill-rule: nonzero; opacity: 1;" vector-effect="non-scaling-stroke"  transform=" translate(0, 0)" d="M 0 -15.12598 C 8.34954 -15.12598 15.12598 -8.349540000000001 15.12598 0 C 15.12598 8.34954 8.349540000000001 15.12598 0 15.12598 C -8.34954 15.12598 -15.12598 8.349540000000001 -15.12598 0 C -15.12598 -8.34954 -8.349540000000001 -15.12598 0 -15.12598 z" stroke-linecap="round" />
</g>
</g>
</g>
<g transform="matrix(1 0 0 1 162.160535117 361.9375696767)" id="l2Q20Xw8GKo7g1CsuLrdY"  >
<g style="" vector-effect="non-scaling-stroke"   >
		<g transform="matrix(1 0 0 1 0 0)" id="H4gise5sCNTGHDHYhYvkX"  >
<path style="stroke: rgb(41,90,75); stroke-width: 0; stroke-dasharray: none; stroke-linecap: butt; stroke-dashoffset: 0; stroke-linejoin: miter; stroke-miterlimit: 4; fill: rgb(0,0,0); fill-rule: nonzero; opacity: 1;" vector-effect="non-scaling-stroke"  transform=" translate(-21.69008, -21.69008)" d="M 21.69008 0 C 33.663 0 43.38016 9.71715 43.38016 21.69008 C 43.38016 33.663 33.66301 43.38016 21.69008 43.38016 C 9.717159999999998 43.38016 0 33.66301 0 21.69008 C 0 9.717159999999998 9.71715 0 21.69008 0 z" stroke-linecap="round" />
</g>
		<g transform="matrix(0.7169810899 0 0 0.7169810899 0 0)" id="w-I08QDe4OTFURd3w7zDf"  >
<path style="stroke: rgb(191,12,204); stroke-width: 0; stroke-dasharray: none; stroke-linecap: butt; stroke-dashoffset: 0; stroke-linejoin: miter; stroke-miterlimit: 4; fill: rgb(255,255,255); fill-rule: nonzero; opacity: 1;" vector-effect="non-scaling-stroke"  transform=" translate(0, 0)" d="M 0 -15.12598 C 8.34954 -15.12598 15.12598 -8.349540000000001 15.12598 0 C 15.12598 8.34954 8.349540000000001 15.12598 0 15.12598 C -8.34954 15.12598 -15.12598 8.349540000000001 -15.12598 0 C -15.12598 -8.34954 -8.349540000000001 -15.12598 0 -15.12598 z" stroke-linecap="round" />
</g>
</g>
</g>
<g transform="matrix(1 0 0 1 312.2348144609 287.8742474916)" id="SW8UgoS0VnMXaV-X917NW"  >
<g style="" vector-effect="non-scaling-stroke"   >
		<g transform="matrix(1 0 0 1 0 0)" id="QY7VwBgZOpnyvL4b5uVu4"  >
<path style="stroke: rgb(41,90,75); stroke-width: 0; stroke-dasharray: none; stroke-linecap: butt; stroke-dashoffset: 0; stroke-linejoin: miter; stroke-miterlimit: 4; fill: rgb(0,0,0); fill-rule: nonzero; opacity: 1;" vector-effect="non-scaling-stroke"  transform=" translate(-21.69008, -21.69008)" d="M 21.69008 0 C 33.663 0 43.38016 9.71715 43.38016 21.69008 C 43.38016 33.663 33.66301 43.38016 21.69008 43.38016 C 9.717159999999998 43.38016 0 33.66301 0 21.69008 C 0 9.717159999999998 9.71715 0 21.69008 0 z" stroke-linecap="round" />
</g>
		<g transform="matrix(0.7169810899 0 0 0.7169810899 0 0)" id="v-3tCpWWLtEx90L7vrxq_"  >
<path style="stroke: rgb(191,12,204); stroke-width: 0; stroke-dasharray: none; stroke-linecap: butt; stroke-dashoffset: 0; stroke-linejoin: miter; stroke-miterlimit: 4; fill: rgb(255,255,255); fill-rule: nonzero; opacity: 1;" vector-effect="non-scaling-stroke"  transform=" translate(0, 0)" d="M 0 -15.12598 C 8.34954 -15.12598 15.12598 -8.349540000000001 15.12598 0 C 15.12598 8.34954 8.349540000000001 15.12598 0 15.12598 C -8.34954 15.12598 -15.12598 8.349540000000001 -15.12598 0 C -15.12598 -8.34954 -8.349540000000001 -15.12598 0 -15.12598 z" stroke-linecap="round" />
</g>
</g>
</g>
<g transform="matrix(1 0 0 1 209.063162924 173.3244217274)" id="q-5YnxIUTXelwox5BZ3OQ"  >
<g style="" vector-effect="non-scaling-stroke"   >
		<g transform="matrix(1 0 0 1 0 0)" id="VuNzLuu_v_a1-ujm_DQK6"  >
<path style="stroke: rgb(41,90,75); stroke-width: 0; stroke-dasharray: none; stroke-linecap: butt; stroke-dashoffset: 0; stroke-linejoin: miter; stroke-miterlimit: 4; fill: rgb(0,0,0); fill-rule: nonzero; opacity: 1;" vector-effect="non-scaling-stroke"  transform=" translate(-21.69008, -21.69008)" d="M 21.69008 0 C 33.663 0 43.38016 9.71715 43.38016 21.69008 C 43.38016 33.663 33.66301 43.38016 21.69008 43.38016 C 9.717159999999998 43.38016 0 33.66301 0 21.69008 C 0 9.717159999999998 9.71715 0 21.69008 0 z" stroke-linecap="round" />
</g>
		<g transform="matrix(0.7169810899 0 0 0.7169810899 0 0)" id="pFdtizUSU7UypRdTv5CHx"  >
<path style="stroke: rgb(191,12,204); stroke-width: 0; stroke-dasharray: none; stroke-linecap: butt; stroke-dashoffset: 0; stroke-linejoin: miter; stroke-miterlimit: 4; fill: rgb(255,255,255); fill-rule: nonzero; opacity: 1;" vector-effect="non-scaling-stroke"  transform=" translate(0, 0)" d="M 0 -15.12598 C 8.34954 -15.12598 15.12598 -8.349540000000001 15.12598 0 C 15.12598 8.34954 8.349540000000001 15.12598 0 15.12598 C -8.34954 15.12598 -15.12598 8.349540000000001 -15.12598 0 C -15.12598 -8.34954 -8.349540000000001 -15.12598 0 -15.12598 z" stroke-linecap="round" />
</g>
</g>
</g>
<g transform="matrix(1 0 0 1 377.0746969283 129.9442586399)" id="Nqamem7BsmUA9dbzz_84k"  >
<g style="" vector-effect="non-scaling-stroke"   >
		<g transform="matrix(1 0 0 1 0 0)" id="3PRZcHfEgAIku8nUMaUYu"  >
<path style="stroke: rgb(41,90,75); stroke-width: 0; stroke-dasharray: none; stroke-linecap: butt; stroke-dashoffset: 0; stroke-linejoin: miter; stroke-miterlimit: 4; fill: rgb(0,0,0); fill-rule: nonzero; opacity: 1;" vector-effect="non-scaling-stroke"  transform=" translate(-21.69008, -21.69008)" d="M 21.69008 0 C 33.663 0 43.38016 9.71715 43.38016 21.69008 C 43.38016 33.663 33.66301 43.38016 21.69008 43.38016 C 9.717159999999998 43.38016 0 33.66301 0 21.69008 C 0 9.717159999999998 9.71715 0 21.69008 0 z" stroke-linecap="round" />
</g>
		<g transform="matrix(0.7169810899 0 0 0.7169810899 0 0)" id="Ic3VMyEXC5CLpYUeyoHkF"  >
<path style="stroke: rgb(191,12,204); stroke-width: 0; stroke-dasharray: none; stroke-linecap: butt; stroke-dashoffset: 0; stroke-linejoin: miter; stroke-miterlimit: 4; fill: rgb(255,255,255); fill-rule: nonzero; opacity: 1;" vector-effect="non-scaling-stroke"  transform=" translate(0, 0)" d="M 0 -15.12598 C 8.34954 -15.12598 15.12598 -8.349540000000001 15.12598 0 C 15.12598 8.34954 8.349540000000001 15.12598 0 15.12598 C -8.34954 15.12598 -15.12598 8.349540000000001 -15.12598 0 C -15.12598 -8.34954 -8.349540000000001 -15.12598 0 -15.12598 z" stroke-linecap="round" />
</g>
</g>
</g>
<g transform="matrix(1 0 0 1 265.5921013313 243.8475825935)" id="3C9H9qKje_A9NaoFnbUEu"  >
<path style="stroke: rgb(0,0,0); stroke-width: 1; stroke-dasharray: none; stroke-linecap: butt; stroke-dashoffset: 0; stroke-linejoin: miter; stroke-miterlimit: 4; fill: rgb(255,255,255); fill-opacity: 0; fill-rule: nonzero; opacity: 1;" vector-effect="non-scaling-stroke"  transform=" translate(0, 0)" d="M -204.8028 12.15242 C -204.8028 12.15242 -218.76568999999998 -106.95704 -172.10583 -164.65746 C -168.57346 -169.02564999999998 -159.41404 -179.90735999999998 -155.59784 -183.83905 C -101.37263999999999 -239.70526999999998 12.097980000000007 -211.31247 12.097980000000007 -211.31247 L 111.4826 -113.90333 L 206.76019000000002 12.152410000000003 C 206.76019000000002 12.152410000000003 95.87906000000002 -5.128889999999998 46.642720000000025 46.46475 C -2.593619999999973 98.0584 9.814820000000026 218.52699 9.814820000000026 218.52699 L -103.43155999999998 118.08998000000001 z" stroke-linecap="round" />
</g>
<g transform="matrix(1 0 0 1 269.4775136643 245.1199382203)" id="6vx7wsg18T8LhScibJiO5"  >
<path style="stroke: rgb(0,0,0); stroke-width: 1; stroke-dasharray: none; stroke-linecap: butt; stroke-dashoffset: 0; stroke-linejoin: miter; stroke-miterlimit: 4; fill: rgb(255,255,255); fill-opacity: 0; fill-rule: nonzero; opacity: 1;" vector-effect="non-scaling-stroke"  transform=" translate(0, 0)" d="M -107.31698 116.81763 C -107.31698 116.81763 -114.14289 -13.797190000000015 -60.41435 -71.79552 C -6.6858099999999965 -129.79385 107.59718 -115.17568 107.59718 -115.17568" stroke-linecap="round" />
</g>
<g transform="matrix(1 0 0 1 209.063162924 175.8574932314)" id="SS2Cj2VcG65nEwOtukCkO"  >
<path style="stroke: rgb(0,0,0); stroke-width: 1; stroke-dasharray: none; stroke-linecap: butt; stroke-dashoffset: 0; stroke-linejoin: miter; stroke-miterlimit: 4; fill: rgb(255,255,255); fill-opacity: 0; fill-rule: nonzero; opacity: 1;" vector-effect="non-scaling-stroke"  transform=" translate(0, 0)" d="M -102.03456 -114.45485 L 1.301010000000005 0.8004400000000089 L 102.03457 114.45485000000001" stroke-linecap="round" />
</g>
</svg>