<?xml version="1.0" encoding="UTF-8" standalone="no" ?>
<!DOCTYPE svg PUBLIC "-//W3C//DTD SVG 1.1//EN" "http://www.w3.org/Graphics/SVG/1.1/DTD/svg11.dtd">
<svg xmlns="http://www.w3.org/2000/svg" xmlns:xlink="http://www.w3.org/1999/xlink" version="1.1" width="512" height="512" viewBox="0 0 512 512" xml:space="preserve">
<desc>Created with Fabric.js 5.3.0</desc>
<defs>
</defs>
<g transform="matrix(0.6754355046 0 0 0.6486757565 162.3304842865 348.2497586629)" id="55dVxsE6XX8ryhzN_mYQL"  >
<path style="stroke: rgb(191,63,86); stroke-width: 0; stroke-dasharray: none; stroke-linecap: butt; stroke-dashoffset: 0; stroke-linejoin: miter; stroke-miterlimit: 4; fill: rgb(0,0,0); fill-rule: nonzero; opacity: 1;" vector-effect="non-scaling-stroke"  transform=" translate(0, 0)" d="M -113.7047 -209.21905 C -104.78695 -209.21905 -97.55768 -201.69156 -97.55768 -192.40592 L -97.55768 103.92562000000001 L -97.55768 103.92562000000001 C -97.55768 115.26420000000002 -88.73011000000001 124.45594000000001 -77.84074000000001 124.45594000000001 L 163.20297 124.45594000000001 L 163.20297 124.45594000000001 C 173.9257 124.45594000000001 182.61819 133.50702 182.61819 144.6721 L 182.61819 190.79044 L 182.61819 190.79044 C 182.61819 200.96828 174.6943 209.21904999999998 164.91969 209.21904999999998 L -155.09954 209.21904999999998 L -155.09954 209.21904999999998 C -170.29766999999998 209.21904999999998 -182.61819 196.39027 -182.61819 180.56517999999997 L -182.61819 -194.78271000000004 L -182.61819 -194.78271000000004 C -182.61819 -202.75568000000004 -176.41089 -209.21905000000004 -168.7538 -209.21905000000004 z" stroke-linecap="round" />
</g>
<g transform="matrix(0.6906680495 0 0 0.5916800058 282.3884144859 239.126736626)" id="D_Q5-2iI3Zk1puptLqJcS"  >
<path style="stroke: rgb(191,63,86); stroke-width: 0; stroke-dasharray: none; stroke-linecap: butt; stroke-dashoffset: 0; stroke-linejoin: miter; stroke-miterlimit: 4; fill: rgb(0,0,0); fill-rule: nonzero; opacity: 1;" vector-effect="non-scaling-stroke"  transform=" translate(0, 0)" d="M -115.20236 -209.21905 C -105.45748 -209.21905 -97.55769 -199.99763000000002 -97.55769 -188.62242 L -97.55769 99.30562999999998 L -97.55769 99.30562999999998 C -97.55769 113.19575999999998 -87.91135 124.45593999999998 -76.01198 124.45593999999998 L 161.40217 124.45593999999998 L 161.40217 124.45593999999998 C 173.11945 124.45593999999998 182.61818000000002 135.54380999999998 182.61818000000002 149.22138999999999 L 182.61818000000002 186.64341 L 182.61818000000002 186.64341 C 182.61818000000002 199.11158999999998 173.95934000000003 209.21904999999998 163.27813000000003 209.21904999999998 L -152.54715 209.21904999999998 L -152.54715 209.21904999999998 C -169.15492999999998 209.21904999999998 -182.61819 193.50338 -182.61819 174.11712999999997 L -182.61819 -191.53406 L -182.61819 -191.53406 C -182.61819 -201.30121000000003 -175.83516 -209.21904 -167.46786 -209.21904 z" stroke-linecap="round" />
</g>
<g transform="matrix(0.6367653809 0 0 0.5455027847 383.1162356223 141.8704265145)" id="rmZ7y3RrUqlEBvGLfQRiD"  >
<path style="stroke: rgb(191,63,86); stroke-width: 0; stroke-dasharray: none; stroke-linecap: butt; stroke-dashoffset: 0; stroke-linejoin: miter; stroke-miterlimit: 4; fill: rgb(0,0,0); fill-rule: nonzero; opacity: 1;" vector-effect="non-scaling-stroke"  transform=" translate(0, 0)" d="M -115.20236 -209.21905 C -105.45748 -209.21905 -97.55769 -199.99763000000002 -97.55769 -188.62242 L -97.55769 99.30562999999998 L -97.55769 99.30562999999998 C -97.55769 113.19575999999998 -87.91135 124.45593999999998 -76.01198 124.45593999999998 L 161.40217 124.45593999999998 L 161.40217 124.45593999999998 C 173.11945 124.45593999999998 182.61818000000002 135.54380999999998 182.61818000000002 149.22138999999999 L 182.61818000000002 186.64341 L 182.61818000000002 186.64341 C 182.61818000000002 199.11158999999998 173.95934000000003 209.21904999999998 163.27813000000003 209.21904999999998 L -152.54715 209.21904999999998 L -152.54715 209.21904999999998 C -169.15492999999998 209.21904999999998 -182.61819 193.50338 -182.61819 174.11712999999997 L -182.61819 -191.53406 L -182.61819 -191.53406 C -182.61819 -201.30121000000003 -175.83516 -209.21904 -167.46786 -209.21904 z" stroke-linecap="round" />
</g>
</svg>