<?xml version="1.0" encoding="UTF-8" standalone="no" ?>
<!DOCTYPE svg PUBLIC "-//W3C//DTD SVG 1.1//EN" "http://www.w3.org/Graphics/SVG/1.1/DTD/svg11.dtd">
<svg xmlns="http://www.w3.org/2000/svg" xmlns:xlink="http://www.w3.org/1999/xlink" version="1.1" width="512" height="512" viewBox="0 0 512 512" xml:space="preserve">
<desc>Created with Fabric.js 5.3.0</desc>
<defs>
</defs>
<g transform="matrix(0.9362942157 0 0 0.8725494719 242.8823148018 263.0111129877)" id="55dVxsE6XX8ryhzN_mYQL"  >
<path style="stroke: rgb(191,63,86); stroke-width: 0; stroke-dasharray: none; stroke-linecap: butt; stroke-dashoffset: 0; stroke-linejoin: miter; stroke-miterlimit: 4; fill: rgb(0,0,0); fill-rule: nonzero; opacity: 1;" vector-effect="non-scaling-stroke"  transform=" translate(0, 0)" d="M -126.28941 -209.21905 C -119.41158 -209.21702000000002 -113.83498 -203.23766 -113.82776 -195.85737 L -113.83236 126.29624000000001 L -113.83236 126.29624000000001 C -113.83247 130.62517000000003 -112.22993 134.77683000000002 -109.37731 137.83785 C -106.52468999999999 140.89887000000002 -102.65567999999999 142.61848 -98.62147999999999 142.61836 L 167.64006000000003 142.61836 L 167.64006000000003 142.61836 C 175.91225000000003 142.61836 182.61818000000002 149.8142 182.61818000000002 158.69072 L 182.61818000000002 194.56783000000001 L 182.61818000000002 194.56783000000001 C 182.61818000000002 202.65947000000003 176.50520000000003 209.21904 168.96445000000003 209.21904 L -161.38857999999996 209.21904 L -161.38857999999996 209.21904 C -173.11336999999997 209.21904 -182.61818999999997 199.01984000000002 -182.61818999999997 186.43848 L -182.61818999999997 -197.74181000000002 L -182.61818999999997 -197.74181000000002 C -182.61818999999997 -204.08052 -177.82948999999996 -209.21907000000002 -171.92232999999996 -209.21907000000002 z" stroke-linecap="round" />
</g>
</svg>